<svg width="53" height="36" viewBox="0 0 53 36" xmlns="http://www.w3.org/2000/svg"><title>laptop</title><desc>Created with Sketch.</desc><g fill="none"><path d="M30.329 32.433v.389c0 .382-.254.8-.553.8h-7.606c-.302 0-.598-.421-.598-.804v-.386h-21.572v1.704c0 .757.451 1.061 1.052 1.061h49.912c.601 0 1.081-.425 1.081-1.186l.003-1.582-21.719.004z" fill="#fff" fill-rule="nonzero"/><path d="M1.402 29.462h49.212c.238 0 .432-.175.432-.315v-27.831c0-.14-.194-.315-.432-.315h-49.212c-.227 0-.396.159-.396.315v27.831c0 .156.17.315.396.315z" stroke="#fff" stroke-width="2"/></g></svg>